<?xml version="1.0" encoding="utf-8"?>
<!-- Generator: Adobe Illustrator 26.3.0, SVG Export Plug-In . SVG Version: 6.00 Build 0)  -->
<svg version="1.1" id="Layer_1" xmlns="http://www.w3.org/2000/svg" xmlns:xlink="http://www.w3.org/1999/xlink" x="0px" y="0px"
	 viewBox="0 0 1080 1080" style="enable-background:new 0 0 1080 1080;" xml:space="preserve">
<path d="M809.2,570.2H645.9c0.8-11.6,3.5-22.2,8.1-31.8c4.6-9.6,10.5-17.8,17.7-24.6c7.2-6.8,15.5-12.1,24.9-15.9
	c9.4-3.8,19.5-5.7,30.3-5.7c22,0,40.7,7.1,56.1,21.3C798.5,527.7,807.2,546.6,809.2,570.2z M424.4,489.2
	c10.1-9.9,15.2-23.5,15.2-40.9c0-16.9-4.6-30.3-13.9-40.3c-9.3-9.9-20.7-14.9-34.4-14.9H273.6v110.9h114
	C402,504.1,414.3,499.1,424.4,489.2z M441.4,588.9c-4.5-5.4-9.9-9.6-16.1-12.7c-6.2-3.1-13-4.6-20.4-4.6H273.6v115.8h127
	c7.8,0,15.2-1.4,22-4.3c6.8-2.9,12.7-6.9,17.7-12.1c5-5.2,8.9-11.2,11.8-18.3c2.9-7,4.3-14.4,4.3-22.3c0-7.8-1.3-15.4-4-22.6
	C449.6,600.6,446,594.3,441.4,588.9z M1080,540c0,298.2-241.8,540-540,540S0,838.2,0,540S241.8,0,540,0S1080,241.8,1080,540z
	 M621.7,393.2h210.4V341H621.7V393.2z M542.4,646.5c0-28.9-7.3-53-22-72.2c-14.7-19.2-34.6-32.5-59.8-39.9
	c20.6-9.1,36.3-23,47.1-41.8c10.7-18.8,16.1-38.9,16.1-60.4c0-13.6-2.4-27.1-7.1-40.6c-4.8-13.4-11.5-25.4-20.1-35.9
	c-8.7-10.5-19.2-19.1-31.6-25.7c-12.4-6.6-26.2-9.9-41.5-9.9H188.1v439.8h212.5c19.4,0,37.7-2.5,54.8-7.4
	c17.1-5,32.2-12.2,45.2-21.7c13-9.5,23.2-21.3,30.7-35.3C538.7,681.4,542.4,665.1,542.4,646.5z M796.9,447.2
	c-20.2-8.8-43.1-13.2-68.7-13.2c-25.6,0-48.7,4.4-69.3,13.2c-40.7,17.5-69.2,46.8-85.5,87.9c-7.6,19.8-11.4,40.9-11.4,63.3
	c0,21.6,3.9,42.2,11.7,61.8c16.6,40.6,45.1,69.5,85.5,86.7c20.4,8.6,43.2,12.9,68.4,12.9c35.2,0,65.5-7.7,90.9-23.1
	c25.4-15.4,43.9-35.1,55.5-59.1l-69-19.2c-5.2,12.8-14.9,23.1-29.1,30.9c-14.2,7.8-29.3,11.7-45.3,11.7c-10.4,0-20.4-1.8-30-5.4
	c-9.6-3.6-18.2-8.8-25.8-15.6c-7.6-6.8-13.8-15-18.6-24.6c-4.8-9.6-7.8-20.6-9-33h243.1c0.8-3.2,1.3-7.2,1.5-12
	C894.6,540.5,863.3,476.2,796.9,447.2z"/>
</svg>
